<?xml version="1.0" encoding="UTF-8"?>
<svg version="1.1" xmlns="http://www.w3.org/2000/svg" width="500" height="267">
<path d="M0 0 C1.29679687 -0.01998047 2.59359375 -0.03996094 3.9296875 -0.06054688 C5.16976563 -0.05990234 6.40984375 -0.05925781 7.6875 -0.05859375 C9.39486328 -0.06137329 9.39486328 -0.06137329 11.13671875 -0.06420898 C14 0.4375 14 0.4375 15.8762207 2.32104492 C17.20257894 4.81902441 17.31140478 6.37899159 17.1875 9.1875 C17.14689453 10.38632813 17.14689453 10.38632813 17.10546875 11.609375 C17.07066406 12.21265625 17.03585937 12.8159375 17 13.4375 C14.36 13.4375 11.72 13.4375 9 13.4375 C9 10.7975 9 8.1575 9 5.4375 C3.06 5.7675 -2.88 6.0975 -9 6.4375 C-9 10.3975 -9 14.3575 -9 18.4375 C-6.43605469 18.49357422 -6.43605469 18.49357422 -3.8203125 18.55078125 C-1.58851903 18.61642223 0.64325081 18.6828702 2.875 18.75 C4.00292969 18.77255859 5.13085938 18.79511719 6.29296875 18.81835938 C7.90751953 18.8715332 7.90751953 18.8715332 9.5546875 18.92578125 C10.54968262 18.95196533 11.54467773 18.97814941 12.56982422 19.00512695 C13.37178223 19.14781006 14.17374023 19.29049316 15 19.4375 C17.03875926 22.4956389 17.25490139 23.14810009 17.265625 26.59765625 C17.26949219 27.7877832 17.26949219 27.7877832 17.2734375 29.00195312 C17.26570313 29.82630859 17.25796875 30.65066406 17.25 31.5 C17.26160156 32.74233398 17.26160156 32.74233398 17.2734375 34.00976562 C17.27085937 34.80189453 17.26828125 35.59402344 17.265625 36.41015625 C17.26336914 37.13468994 17.26111328 37.85922363 17.25878906 38.60571289 C17 40.4375 17 40.4375 15 42.4375 C12.05078125 42.69628906 12.05078125 42.69628906 8.3125 42.703125 C7.65419189 42.70503845 6.99588379 42.7069519 6.31762695 42.70892334 C4.9256146 42.7102845 3.53358953 42.70659283 2.14160156 42.69824219 C0.00817411 42.687541 -2.12441131 42.69813906 -4.2578125 42.7109375 C-5.60937686 42.70961589 -6.9609407 42.70705347 -8.3125 42.703125 C-9.54613281 42.70086914 -10.77976562 42.69861328 -12.05078125 42.69628906 C-15 42.4375 -15 42.4375 -17 40.4375 C-17.1953125 38.0546875 -17.1953125 38.0546875 -17.125 35.3125 C-17.10695313 34.40242188 -17.08890625 33.49234375 -17.0703125 32.5546875 C-17.04710937 31.85601562 -17.02390625 31.15734375 -17 30.4375 C-14.36 30.4375 -11.72 30.4375 -9 30.4375 C-8.67 32.7475 -8.34 35.0575 -8 37.4375 C-2.39 37.7675 3.22 38.0975 9 38.4375 C9 33.8175 9 29.1975 9 24.4375 C7.44667969 24.44910156 5.89335937 24.46070313 4.29296875 24.47265625 C2.2578137 24.48203484 0.22265735 24.49113497 -1.8125 24.5 C-3.34874023 24.51256836 -3.34874023 24.51256836 -4.91601562 24.52539062 C-6.39038086 24.53022461 -6.39038086 24.53022461 -7.89453125 24.53515625 C-8.80050049 24.54039307 -9.70646973 24.54562988 -10.63989258 24.55102539 C-13 24.4375 -13 24.4375 -16 23.4375 C-17.70345745 20.03058509 -17.22662366 16.25482483 -17.25 12.5 C-17.270625 11.67564453 -17.29125 10.85128906 -17.3125 10.00195312 C-17.31765625 9.20853516 -17.3228125 8.41511719 -17.328125 7.59765625 C-17.3374707 6.87199463 -17.34681641 6.14633301 -17.35644531 5.39868164 C-17 3.4375 -17 3.4375 -15.87402344 1.70458984 C-11.54425735 -1.22290963 -5.03514248 -0.02752811 0 0 Z " fill="#5925D4" transform="translate(331,118.5625)"/>
<path d="M0 0 C1.8552832 -0.0009668 1.8552832 -0.0009668 3.74804688 -0.00195312 C5.03646484 0.01802734 6.32488281 0.03800781 7.65234375 0.05859375 C8.94462891 0.05150391 10.23691406 0.04441406 11.56835938 0.03710938 C21.0397094 0.10133867 21.0397094 0.10133867 23.46386719 1.84082031 C25.20658807 4.40275605 24.87556583 6.63870916 24.77734375 9.68359375 C24.73673828 11.31361328 24.73673828 11.31361328 24.6953125 12.9765625 C24.66050781 13.80800781 24.62570313 14.63945312 24.58984375 15.49609375 C21.94984375 15.49609375 19.30984375 15.49609375 16.58984375 15.49609375 C16.58984375 12.19609375 16.58984375 8.89609375 16.58984375 5.49609375 C13.7769567 5.63629067 10.9646749 5.7829733 8.15234375 5.93359375 C7.34990234 5.97291016 6.54746094 6.01222656 5.72070312 6.05273438 C1.83744814 5.90152335 1.83744814 5.90152335 -1.41015625 7.49609375 C-1.6643481 11.94850965 -1.59538598 16.41228506 -1.59765625 20.87109375 C-1.60990234 22.12921875 -1.62214844 23.38734375 -1.63476562 24.68359375 C-1.63669922 25.88757813 -1.63863281 27.0915625 -1.640625 28.33203125 C-1.64678833 29.99564697 -1.64678833 29.99564697 -1.65307617 31.69287109 C-1.61840536 34.70458135 -1.61840536 34.70458135 0.58984375 37.49609375 C3.21681439 37.71746768 5.59878339 37.777714 8.21484375 37.68359375 C8.92125 37.67005859 9.62765625 37.65652344 10.35546875 37.64257812 C12.10058503 37.60720415 13.84530983 37.55339596 15.58984375 37.49609375 C15.91984375 34.52609375 16.24984375 31.55609375 16.58984375 28.49609375 C19.55984375 28.49609375 22.52984375 28.49609375 25.58984375 28.49609375 C25.47601722 30.45510829 25.3484325 32.41332755 25.21484375 34.37109375 C25.14523438 35.46164063 25.075625 36.5521875 25.00390625 37.67578125 C24.58984375 40.49609375 24.58984375 40.49609375 22.58984375 42.49609375 C18.17140826 42.89515765 13.73864536 42.82512732 9.30419922 42.81176758 C7.09813141 42.80860563 4.89340206 42.83206951 2.6875 42.85742188 C1.29036628 42.85969463 -0.10677106 42.86039847 -1.50390625 42.859375 C-2.77943359 42.86235596 -4.05496094 42.86533691 -5.36914062 42.8684082 C-6.37267578 42.74554443 -7.37621094 42.62268066 -8.41015625 42.49609375 C-10.86779511 38.80963546 -10.73321124 35.95659509 -10.74609375 31.6875 C-10.75275055 30.92436996 -10.75940735 30.16123993 -10.76626587 29.37498474 C-10.77638432 27.76197722 -10.78108314 26.1489279 -10.78076172 24.53588867 C-10.78513469 22.07074909 -10.82145844 19.60740088 -10.859375 17.14257812 C-10.86524347 15.57422486 -10.86921266 14.00586311 -10.87109375 12.4375 C-10.88546478 11.70197403 -10.89983582 10.96644806 -10.91464233 10.20863342 C-10.88509499 6.89176264 -10.62648562 4.8236532 -8.78198242 2.03076172 C-5.68902162 0.02949033 -3.67214472 -0.00600578 0 0 Z " fill="#241696" transform="translate(168.41015625,118.50390625)"/>
<path d="M0 0 C3.63 0 7.26 0 11 0 C11.83986084 1.93467942 12.67168027 3.87285129 13.5 5.8125 C13.9640625 6.89144531 14.428125 7.97039062 14.90625 9.08203125 C16 12 16 12 16 15 C16.66 15 17.32 15 18 15 C20.71391278 19.77357872 22.56561146 23.34388537 22 29 C22.66 29 23.32 29 24 29 C24.6708712 30.6232687 25.33657029 32.24867578 26 33.875 C26.37125 34.77992188 26.7425 35.68484375 27.125 36.6171875 C28 39 28 39 28 41 C25.04335481 42.4783226 22.25770263 42.06032783 19 42 C15.95127874 34.83480257 13.03039713 27.6239889 10.1875 20.375 C9.87353271 19.58109863 9.55956543 18.78719727 9.23608398 17.96923828 C7 12.23489482 7 12.23489482 7 10 C6.34 10 5.68 10 5 10 C4.87625 10.886875 4.7525 11.77375 4.625 12.6875 C3.77746489 17.1794361 2.09400864 20.96155477 0 25 C-0.66 25 -1.32 25 -2 25 C-1.938125 25.721875 -1.87625 26.44375 -1.8125 27.1875 C-2.03890323 30.58354843 -3.1610921 32.17091092 -5 35 C-5.350625 35.886875 -5.70125 36.77375 -6.0625 37.6875 C-7 40 -7 40 -9 42 C-12.625 42.125 -12.625 42.125 -16 42 C-13.64578738 33.22971069 -10.28134385 24.89815665 -6.875 16.5 C-6.31862756 15.1173415 -5.76263532 13.73452994 -5.20703125 12.3515625 C-1.19843665 2.39687329 -1.19843665 2.39687329 0 0 Z " fill="#1806A7" transform="translate(89,115)"/>
<path d="M0 0 C2.91699339 3.91417945 4.56095111 8.53121529 6.35546875 13.0390625 C6.66196854 13.80173431 6.96846832 14.56440613 7.28425598 15.35018921 C7.92757289 16.9546052 8.56870355 18.55989935 9.20776367 20.16601562 C10.18812784 22.62657577 11.17857948 25.08290808 12.16992188 27.5390625 C12.79488215 29.10131809 13.41925179 30.66381011 14.04296875 32.2265625 C14.3397905 32.96097565 14.63661224 33.69538879 14.94242859 34.45205688 C16.12743878 37.44892585 17 39.74654204 17 43 C14.69 43 12.38 43 10 43 C6.31776572 36.04849229 3.52933132 28.85230087 0.75 21.5 C0.29109375 20.29601562 -0.1678125 19.09203125 -0.640625 17.8515625 C-1.7641071 14.90242199 -2.88378941 11.95189863 -4 9 C-4.38857178 9.99443115 -4.77714355 10.9888623 -5.17749023 12.01342773 C-6.61543982 15.69138654 -8.05682411 19.36799102 -9.49926758 23.04418945 C-10.12390911 24.63756986 -10.7476098 26.23131942 -11.37036133 27.82543945 C-12.26398474 30.11246134 -13.16094763 32.39814828 -14.05859375 34.68359375 C-14.3377916 35.40026718 -14.61698944 36.11694061 -14.90464783 36.85533142 C-16.88612829 41.88612829 -16.88612829 41.88612829 -18 43 C-20.33297433 43.04092937 -22.66705225 43.04241723 -25 43 C-24.36744109 37.90555241 -22.83797794 33.55452776 -20.9453125 28.828125 C-20.64309784 28.06449646 -20.34088318 27.30086792 -20.0295105 26.51409912 C-19.39206011 24.90937572 -18.75146877 23.30589681 -18.10791016 21.70361328 C-17.12427856 19.24819909 -16.15742399 16.78660729 -15.19140625 14.32421875 C-14.56871562 12.7626188 -13.94505133 11.20140667 -13.3203125 9.640625 C-13.0327005 8.90418762 -12.7450885 8.16775024 -12.44876099 7.40899658 C-9.77665662 0.83376708 -7.14993502 -0.89374188 0 0 Z " fill="#BF76D5" transform="translate(482,114)"/>
<path d="M0 0 C7.05375 -0.0309375 7.05375 -0.0309375 14.25 -0.0625 C15.72758789 -0.071604 17.20517578 -0.08070801 18.72753906 -0.09008789 C19.89510742 -0.09258545 21.06267578 -0.09508301 22.265625 -0.09765625 C23.45961914 -0.10289307 24.65361328 -0.10812988 25.88378906 -0.11352539 C28.46694617 -0.01941946 30.55008419 0.23373845 33 1 C32.67 2.32 32.34 3.64 32 5 C31.37955811 5.01458252 30.75911621 5.02916504 30.11987305 5.04418945 C27.30845367 5.11866588 24.49822251 5.21532564 21.6875 5.3125 C20.71103516 5.33505859 19.73457031 5.35761719 18.72851562 5.38085938 C17.79072266 5.41630859 16.85292969 5.45175781 15.88671875 5.48828125 C14.59060669 5.52755737 14.59060669 5.52755737 13.26831055 5.56762695 C10.53507901 6.08862072 9.61830582 6.75889458 8 9 C7.40429946 13.61723871 7.40429946 13.61723871 9.24536133 17.68676758 C11.43579657 19.32616526 12.73153436 19.42052129 15.44921875 19.51171875 C16.72055664 19.56489258 16.72055664 19.56489258 18.01757812 19.61914062 C19.33918945 19.65297852 19.33918945 19.65297852 20.6875 19.6875 C21.58017578 19.72166016 22.47285156 19.75582031 23.39257812 19.79101562 C25.59492671 19.87345648 27.79687938 19.94261551 30 20 C30 21.65 30 23.3 30 25 C29.44014404 25.02505615 28.88028809 25.0501123 28.3034668 25.07592773 C25.76458695 25.19203745 23.22606447 25.3146958 20.6875 25.4375 C19.80642578 25.47681641 18.92535156 25.51613281 18.01757812 25.55664062 C17.17001953 25.59853516 16.32246094 25.64042969 15.44921875 25.68359375 C14.66893311 25.72025146 13.88864746 25.75690918 13.0847168 25.79467773 C10.80670899 25.94125263 10.80670899 25.94125263 8 27 C7.67 31.95 7.34 36.9 7 42 C4.69 42 2.38 42 0 42 C0 28.14 0 14.28 0 0 Z " fill="#1C0D9A" transform="translate(8,119)"/>
<path d="M0 0 C14.85 0 29.7 0 45 0 C44.67 0.66 44.34 1.32 44 2 C30.47 2.33 16.94 2.66 3 3 C8.04625812 15.6693385 8.04625812 15.6693385 13.79223633 17.55175781 C15.78764735 17.63143554 15.78764735 17.63143554 17.83203125 17.453125 C18.54985275 17.45455505 19.26767426 17.45598511 20.00724792 17.4574585 C22.2812954 17.44909649 24.54091659 17.35196875 26.8125 17.25 C28.35342678 17.22440159 29.89446581 17.20481406 31.43554688 17.19140625 C33.59940756 17.17173519 35.75891645 17.14317711 37.92158508 17.06768799 C42.79876146 16.89938073 42.79876146 16.89938073 45 18 C45.042721 19.66611905 45.04063832 21.33382885 45 23 C43.02170928 24.97829072 39.17672973 24.25503932 36.46484375 24.31640625 C35.71159317 24.33718735 34.95834259 24.35796844 34.18226624 24.37937927 C31.7674401 24.44495425 29.35250202 24.50379621 26.9375 24.5625 C25.30402471 24.6056777 23.6705609 24.64929173 22.03710938 24.69335938 C18.02485282 24.80146797 14.01251576 24.90048114 10 25 C7.69 29.62 5.38 34.24 3 39 C16.86 39.33 30.72 39.66 45 40 C44.505 40.99 44.505 40.99 44 42 C29.48 42 14.96 42 0 42 C0.8565031 36.8609814 1.73174413 34.08814954 4.0625 29.625 C4.61035156 28.56539062 5.15820312 27.50578125 5.72265625 26.4140625 C6.14417969 25.61742187 6.56570312 24.82078125 7 24 C5.02 24 3.04 24 1 24 C0.375 21.625 0.375 21.625 0 19 C2.35953094 16.64046906 3.77895617 16.50858587 7 16 C6.4946875 15.01257813 5.989375 14.02515625 5.46875 13.0078125 C4.81228987 11.71364824 4.15605133 10.41937155 3.5 9.125 C3.16613281 8.47402344 2.83226562 7.82304687 2.48828125 7.15234375 C0 2.2265625 0 2.2265625 0 0 Z " fill="#4655AB" transform="translate(231,121)"/>
<path d="M0 0 C12.21 0 24.42 0 37 0 C37 1.65 37 3.3 37 5 C34.05613377 6.47193312 31.62609964 5.84936173 28.375 5.5625 C27.18648438 5.46066406 25.99796875 5.35882813 24.7734375 5.25390625 C23.85820312 5.17011719 22.94296875 5.08632812 22 5 C22.00785522 6.67340454 22.00785522 6.67340454 22.01586914 8.38061523 C22.03391775 12.50479333 22.04543149 16.62896791 22.05493164 20.75317383 C22.05997218 22.54094021 22.06680454 24.32870245 22.07543945 26.11645508 C22.0875173 28.68051168 22.09323094 31.24451397 22.09765625 33.80859375 C22.10281754 34.6127623 22.10797882 35.41693085 22.11329651 36.24546814 C22.11349215 38.16401715 22.06201983 40.08245368 22 42 C21 43 21 43 18.5 43.125 C16 43 16 43 15 42 C14.83996512 39.33573315 14.74057111 36.69439572 14.68359375 34.02734375 C14.66281265 33.22970108 14.64203156 32.43205841 14.62062073 31.61024475 C14.55503842 29.05275389 14.49620033 26.4951572 14.4375 23.9375 C14.39432301 22.20767118 14.35070899 20.47785321 14.30664062 18.74804688 C14.19934828 14.4988074 14.09810574 10.2494611 14 6 C7.07 5.505 7.07 5.505 0 5 C0 3.35 0 1.7 0 0 Z " fill="#8755EB" transform="translate(385,119)"/>
<path d="M0 0 C1.29679687 -0.01998047 2.59359375 -0.03996094 3.9296875 -0.06054688 C5.16976563 -0.05990234 6.40984375 -0.05925781 7.6875 -0.05859375 C9.39486328 -0.06137329 9.39486328 -0.06137329 11.13671875 -0.06420898 C14 0.4375 14 0.4375 15.8762207 2.32104492 C17.20257894 4.81902441 17.31140478 6.37899159 17.1875 9.1875 C17.14689453 10.38632813 17.14689453 10.38632813 17.10546875 11.609375 C17.07066406 12.21265625 17.03585937 12.8159375 17 13.4375 C14.36 13.4375 11.72 13.4375 9 13.4375 C9 10.7975 9 8.1575 9 5.4375 C3.06 5.7675 -2.88 6.0975 -9 6.4375 C-9 10.7275 -9 15.0175 -9 19.4375 C-10.32 19.7675 -11.64 20.0975 -13 20.4375 C-12.67 15.4875 -12.34 10.5375 -12 5.4375 C-12.66 5.1075 -13.32 4.7775 -14 4.4375 C-14 5.0975 -14 5.7575 -14 6.4375 C-14.66 6.4375 -15.32 6.4375 -16 6.4375 C-16 7.0975 -16 7.7575 -16 8.4375 C-15.01 8.7675 -14.02 9.0975 -13 9.4375 C-12.92585645 13.29296463 -12.90152238 16.73013803 -14 20.4375 C-14 21.0975 -14 21.7575 -14 22.4375 C-6.41 22.7675 1.18 23.0975 9 23.4375 C9 23.7675 9 24.0975 9 24.4375 C5.3958502 24.46650455 1.79173038 24.48430018 -1.8125 24.5 C-3.34874023 24.51256836 -3.34874023 24.51256836 -4.91601562 24.52539062 C-6.39038086 24.53022461 -6.39038086 24.53022461 -7.89453125 24.53515625 C-8.80050049 24.54039307 -9.70646973 24.54562988 -10.63989258 24.55102539 C-13 24.4375 -13 24.4375 -16 23.4375 C-17.70345745 20.03058509 -17.22662366 16.25482483 -17.25 12.5 C-17.270625 11.67564453 -17.29125 10.85128906 -17.3125 10.00195312 C-17.31765625 9.20853516 -17.3228125 8.41511719 -17.328125 7.59765625 C-17.3374707 6.87199463 -17.34681641 6.14633301 -17.35644531 5.39868164 C-17 3.4375 -17 3.4375 -15.87402344 1.70458984 C-11.54425735 -1.22290963 -5.03514248 -0.02752811 0 0 Z " fill="#5323D3" transform="translate(331,118.5625)"/>
<path d="M0 0 C1.50240234 -0.01836914 1.50240234 -0.01836914 3.03515625 -0.03710938 C3.99550781 -0.03904297 4.95585937 -0.04097656 5.9453125 -0.04296875 C6.81945801 -0.04707764 7.69360352 -0.05118652 8.59423828 -0.05541992 C10.875 0.1875 10.875 0.1875 13.875 2.1875 C14.16796875 4.7890625 14.16796875 4.7890625 14.0625 7.8125 C14.02189453 9.31683594 14.02189453 9.31683594 13.98046875 10.8515625 C13.94566406 11.62242187 13.91085938 12.39328125 13.875 13.1875 C12.225 13.1875 10.575 13.1875 8.875 13.1875 C8.545 10.2175 8.215 7.2475 7.875 4.1875 C1.275 4.5175 -5.325 4.8475 -12.125 5.1875 C-12.455 16.4075 -12.785 27.6275 -13.125 39.1875 C-15.125 39.1875 -15.125 39.1875 -16.72729492 38.12084961 C-18.82756891 35.21568459 -18.49669456 32.80318749 -18.48828125 29.25390625 C-18.48877975 28.57956039 -18.48927826 27.90521454 -18.48979187 27.21043396 C-18.48745394 25.78568574 -18.47774178 24.36093319 -18.46118164 22.9362793 C-18.43762108 20.7611779 -18.44061817 18.5873057 -18.44726562 16.41210938 C-18.39745189 4.03460476 -18.39745189 4.03460476 -16.125 1.1875 C-10.9821008 -0.46584766 -5.35007349 0.00346957 0 0 Z " fill="#1703A8" transform="translate(177.125,119.8125)"/>
<path d="M0 0 C1.26336095 4.13256689 0.4142755 6.18463047 -1.25 10.1875 C-3.36820795 15.41516641 -5.27139608 20.63222993 -7 26 C-6.01 26 -5.02 26 -4 26 C-3.81824219 25.41992188 -3.63648437 24.83984375 -3.44921875 24.2421875 C-1.3041867 17.57608791 0.65411975 11.79285816 6 7 C5.29270211 13.01203207 3.76600417 17.66556339 1 23 C0.34 23 -0.32 23 -1 23 C-0.938125 23.721875 -0.87625 24.44375 -0.8125 25.1875 C-1.03890323 28.58354843 -2.1610921 30.17091092 -4 33 C-4.350625 33.886875 -4.70125 34.77375 -5.0625 35.6875 C-6 38 -6 38 -8 40 C-11.625 40.125 -11.625 40.125 -15 40 C-12.63888648 31.18359947 -9.24114099 22.81365106 -5.8125 14.375 C-5.24764205 12.97542373 -4.68318594 11.57568521 -4.11914062 10.17578125 C-2.750716 6.78197327 -1.37688565 3.39038557 0 0 Z " fill="#201199" transform="translate(88,117)"/>
<path d="M0 0 C0.99 0.33 1.98 0.66 3 1 C2.85930804 3.12534659 2.71229079 5.25027529 2.5625 7.375 C2.48128906 8.55835938 2.40007812 9.74171875 2.31640625 10.9609375 C2 14 2 14 1 16 C1.57435791 15.83540283 2.14871582 15.67080566 2.74047852 15.5012207 C6.4762309 14.67253355 10.13612069 15.00735431 13.9375 15.1875 C14.73607422 15.20619141 15.53464844 15.22488281 16.35742188 15.24414062 C20.11783602 15.42172439 22.62281076 15.80798527 26.015625 17.53515625 C28.74859492 20.9298492 28.77920552 24.06229466 28.8125 28.25 C28.83763672 28.99507812 28.86277344 29.74015625 28.88867188 30.5078125 C28.94733102 32.33797793 28.9765808 34.16904453 29 36 C26.05868109 36.98043964 24.17498335 37.11621202 21.11328125 37.09765625 C20.17548828 37.09443359 19.23769531 37.09121094 18.27148438 37.08789062 C16.80678711 37.07532227 16.80678711 37.07532227 15.3125 37.0625 C14.32443359 37.05798828 13.33636719 37.05347656 12.31835938 37.04882812 C9.87884526 37.03704303 7.43945311 37.02059011 5 37 C9.06948869 34.71190227 12.68108952 34.77006036 17.25 34.875 C17.99507813 34.88402344 18.74015625 34.89304688 19.5078125 34.90234375 C21.33868059 34.92581642 23.16938238 34.96168475 25 35 C24.85890014 32.89551062 24.71195825 30.7914123 24.5625 28.6875 C24.48128906 27.51574219 24.40007812 26.34398437 24.31640625 25.13671875 C24.1132629 21.97409042 24.1132629 21.97409042 23 19 C22.06933716 19.02356567 22.06933716 19.02356567 21.11987305 19.04760742 C18.30917472 19.10996214 15.49862188 19.14899148 12.6875 19.1875 C11.71103516 19.21263672 10.73457031 19.23777344 9.72851562 19.26367188 C8.32182617 19.27817383 8.32182617 19.27817383 6.88671875 19.29296875 C6.02264404 19.3086792 5.15856934 19.32438965 4.26831055 19.34057617 C2 19 2 19 0.17504883 17.59106445 C-0.21271729 17.06601318 -0.6004834 16.54096191 -1 16 C-0.6875 14.25 -0.6875 14.25 0 12 C0.03888349 9.66699067 0.0448635 7.33290199 0 5 C-0.66 4.67 -1.32 4.34 -2 4 C-2 3.34 -2 2.68 -2 2 C-1.34 2 -0.68 2 0 2 C0 1.34 0 0.68 0 0 Z " fill="#4F13DF" transform="translate(317,123)"/>
<path d="M0 0 C4.29165262 -0.02891949 8.58328036 -0.04677118 12.875 -0.0625 C14.70998047 -0.07506836 14.70998047 -0.07506836 16.58203125 -0.08789062 C18.33193359 -0.09272461 18.33193359 -0.09272461 20.1171875 -0.09765625 C21.73536377 -0.10551147 21.73536377 -0.10551147 23.38623047 -0.11352539 C26 0 26 0 28 1 C28.042721 2.66611905 28.04063832 4.33382885 28 6 C27 7 27 7 24.68334961 7.11352539 C23.68311768 7.10828857 22.68288574 7.10305176 21.65234375 7.09765625 C20.57275391 7.09443359 19.49316406 7.09121094 18.38085938 7.08789062 C17.24455078 7.07951172 16.10824219 7.07113281 14.9375 7.0625 C13.79732422 7.05798828 12.65714844 7.05347656 11.48242188 7.04882812 C8.65489649 7.03699747 5.8274736 7.0205141 3 7 C3 6.34 3 5.68 3 5 C2.01 5 1.02 5 0 5 C0 3.35 0 1.7 0 0 Z " fill="#7362BA" transform="translate(248,138)"/>
<path d="M0 0 C0.99 1.485 0.99 1.485 2 3 C4.42521494 3.58189266 4.42521494 3.58189266 7.125 3.6875 C8.49011719 3.78611328 8.49011719 3.78611328 9.8828125 3.88671875 C10.58148438 3.92410156 11.28015625 3.96148437 12 4 C11.68546875 4.4846875 11.3709375 4.969375 11.046875 5.46875 C10.61890625 6.1390625 10.1909375 6.809375 9.75 7.5 C9.33234375 8.1496875 8.9146875 8.799375 8.484375 9.46875 C6.48224096 12.88291541 4.77003199 16.45993602 3 20 C16.86 20.33 30.72 20.66 45 21 C44.67 21.66 44.34 22.32 44 23 C29.48 23 14.96 23 0 23 C0.8565031 17.8609814 1.73174413 15.08814954 4.0625 10.625 C4.61035156 9.56539062 5.15820312 8.50578125 5.72265625 7.4140625 C6.14417969 6.61742187 6.56570312 5.82078125 7 5 C5.02 5 3.04 5 1 5 C0.67 3.35 0.34 1.7 0 0 Z " fill="#4C5796" transform="translate(231,140)"/>
<path d="M0 0 C6.93 0 13.86 0 21 0 C21 0.99 21 1.98 21 3 C19.72382813 3.06058594 18.44765625 3.12117187 17.1328125 3.18359375 C15.46352984 3.26799568 13.79425963 3.35264386 12.125 3.4375 C11.28324219 3.47681641 10.44148438 3.51613281 9.57421875 3.55664062 C8.76855469 3.59853516 7.96289062 3.64042969 7.1328125 3.68359375 C6.38918457 3.72025146 5.64555664 3.75690918 4.87939453 3.79467773 C2.91135688 3.89955865 2.91135688 3.89955865 1 5 C1 9.95 1 14.9 1 20 C-0.32 20 -1.64 20 -3 20 C-3 14.72 -3 9.44 -3 4 C-2.01 4 -1.02 4 0 4 C0 2.68 0 1.36 0 0 Z " fill="#1602A9" transform="translate(12,140)"/>
<path d="M0 0 C14.85 0 29.7 0 45 0 C44.67 0.66 44.34 1.32 44 2 C30.47 2.33 16.94 2.66 3 3 C4.65 5.97 6.3 8.94 8 12 C7.67 12.99 7.34 13.98 7 15 C5.82823482 12.87767021 4.66245215 10.75242209 3.5 8.625 C3.16613281 8.02171875 2.83226562 7.4184375 2.48828125 6.796875 C0 2.2265625 0 2.2265625 0 0 Z " fill="#444F94" transform="translate(231,121)"/>
<path d="M0 0 C1.953125 0.98828125 1.953125 0.98828125 4 3 C4.45718128 5.84566041 4.69521446 8.33616173 4.75 11.1875 C4.77964844 11.93708984 4.80929687 12.68667969 4.83984375 13.45898438 C4.9104079 15.30541307 4.95748476 17.15271261 5 19 C2.05868109 19.98043964 0.17498335 20.11621202 -2.88671875 20.09765625 C-3.82451172 20.09443359 -4.76230469 20.09121094 -5.72851562 20.08789062 C-6.70498047 20.07951172 -7.68144531 20.07113281 -8.6875 20.0625 C-9.67556641 20.05798828 -10.66363281 20.05347656 -11.68164062 20.04882812 C-14.12115474 20.03704303 -16.56054689 20.02059011 -19 20 C-14.93051131 17.71190227 -11.31891048 17.77006036 -6.75 17.875 C-6.00492187 17.88402344 -5.25984375 17.89304688 -4.4921875 17.90234375 C-2.66131941 17.92581642 -0.83061762 17.96168475 1 18 C0.85848172 15.9163691 0.71162064 13.83310062 0.5625 11.75 C0.48128906 10.58984375 0.40007812 9.4296875 0.31640625 8.234375 C0.09350711 5.12133032 0.09350711 5.12133032 -0.59765625 2.640625 C-0.79681641 1.82851562 -0.79681641 1.82851562 -1 1 C-0.67 0.67 -0.34 0.34 0 0 Z " fill="#5C17EB" transform="translate(341,140)"/>
<path d="M0 0 C4.25250375 2.90960783 5.82032426 4.9863781 7 10 C7.33926947 12.33247761 7.67240066 14.66585471 8 17 C8.350625 18.216875 8.70125 19.43375 9.0625 20.6875 C10 24 10 24 10 28 C9.01 27.67 8.02 27.34 7 27 C6.87625 26.195625 6.7525 25.39125 6.625 24.5625 C6.41875 23.716875 6.2125 22.87125 6 22 C5.34 21.67 4.68 21.34 4 21 C4.061875 20.113125 4.12375 19.22625 4.1875 18.3125 C3.92664699 13.70409691 2.21072635 11.21072635 -1 8 C-1.1875 4.4375 -1.1875 4.4375 -1 1 C-0.67 0.67 -0.34 0.34 0 0 Z " fill="#C96DE4" transform="translate(485,127)"/>
<path d="M0 0 C0.99 0.33 1.98 0.66 3 1 C2.67 1.33 2.34 1.66 2 2 C1.74580815 6.4524159 1.81477027 10.91619131 1.8125 15.375 C1.80025391 16.633125 1.78800781 17.89125 1.77539062 19.1875 C1.77345703 20.39148438 1.77152344 21.59546875 1.76953125 22.8359375 C1.76542236 23.94501465 1.76131348 25.0540918 1.75708008 26.19677734 C1.79175089 29.2084876 1.79175089 29.2084876 4 32 C6.609621 32.38411275 9.0058074 32.60293197 11.625 32.6875 C12.33140625 32.72166016 13.0378125 32.75582031 13.765625 32.79101562 C15.50985688 32.87351308 17.25490395 32.93843335 19 33 C19 33.33 19 33.66 19 34 C16.04160645 34.02689449 13.08345573 34.04678741 10.125 34.0625 C9.28324219 34.07087891 8.44148437 34.07925781 7.57421875 34.08789062 C6.76855469 34.09111328 5.96289062 34.09433594 5.1328125 34.09765625 C4.01737061 34.10551147 4.01737061 34.10551147 2.87939453 34.11352539 C1 34 1 34 -1 33 C-1.02465392 28.46102295 -1.04283789 23.92208457 -1.05493164 19.38305664 C-1.0599714 17.83780234 -1.0668032 16.29255284 -1.07543945 14.74731445 C-1.08752076 12.53074971 -1.09323173 10.31424782 -1.09765625 8.09765625 C-1.10281754 7.4028566 -1.10797882 6.70805695 -1.11329651 5.99220276 C-1.11349277 4.3277067 -1.06189129 2.66334501 -1 1 C-0.67 0.67 -0.34 0.34 0 0 Z " fill="#271795" transform="translate(165,124)"/>
<path d="M0 0 C11.55 0 23.1 0 35 0 C35 0.99 35 1.98 35 3 C32.58325776 3.02705308 30.1668206 3.04686438 27.75 3.0625 C26.72712891 3.07506836 26.72712891 3.07506836 25.68359375 3.08789062 C22.27514594 3.10443649 19.28157134 2.90161985 16 2 C15.67 2.33 15.34 2.66 15 3 C13.14227838 2.91015699 11.28752015 2.75388139 9.4375 2.5625 C7.91962891 2.40974609 7.91962891 2.40974609 6.37109375 2.25390625 C5.58863281 2.17011719 4.80617188 2.08632812 4 2 C4 2.66 4 3.32 4 4 C2.68 4 1.36 4 0 4 C0 2.68 0 1.36 0 0 Z " fill="#7348F1" transform="translate(386,120)"/>
<path d="M0 0 C1.134375 0.020625 2.26875 0.04125 3.4375 0.0625 C3.705625 1.031875 3.97375 2.00125 4.25 3 C4.641875 4.010625 5.03375 5.02125 5.4375 6.0625 C6.4275 6.3925 7.4175 6.7225 8.4375 7.0625 C8.1075 7.7225 7.7775 8.3825 7.4375 9.0625 C7.746875 9.825625 8.05625 10.58875 8.375 11.375 C9.47934216 14.16833605 9.6071523 16.09358472 9.4375 19.0625 C8.4475 19.3925 7.4575 19.7225 6.4375 20.0625 C6.4375 17.7525 6.4375 15.4425 6.4375 13.0625 C5.4475 12.7325 4.4575 12.4025 3.4375 12.0625 C3.4375 11.0725 3.4375 10.0825 3.4375 9.0625 C2.7775 8.7325 2.1175 8.4025 1.4375 8.0625 C1.4375 7.0725 1.4375 6.0825 1.4375 5.0625 C-0.2125 4.7325 -1.8625 4.4025 -3.5625 4.0625 C-3.8925 3.0725 -4.2225 2.0825 -4.5625 1.0625 C-3.5625 0.0625 -3.5625 0.0625 0 0 Z " fill="#1603A9" transform="translate(94.5625,115.9375)"/>
<path d="M0 0 C2 1.4375 2 1.4375 4 4 C4.35442445 7.02824418 4.23347235 9.96485939 4 13 C1.36 13 -1.28 13 -4 13 C-4.33 10.03 -4.66 7.06 -5 4 C-4.01 4 -3.02 4 -2 4 C-2 3.01 -2 2.02 -2 1 C-1.34 0.67 -0.68 0.34 0 0 Z " fill="#5B28D9" transform="translate(344,119)"/>
<path d="M0 0 C1.77074917 -0.02705729 3.54161711 -0.04642195 5.3125 -0.0625 C6.29863281 -0.07410156 7.28476562 -0.08570313 8.30078125 -0.09765625 C11 0 11 0 14 1 C14 2.65 14 4.3 14 6 C12.25034642 6.05429959 10.50020213 6.09292823 8.75 6.125 C7.77546875 6.14820313 6.8009375 6.17140625 5.796875 6.1953125 C2.9803502 5.99862781 1.39050964 5.44568916 -1 4 C-0.67 2.68 -0.34 1.36 0 0 Z " fill="#9163CC" transform="translate(261,139)"/>
<path d="M0 0 C3 3.625 3 3.625 3 7 C3.66 7 4.32 7 5 7 C7.71391278 11.77357872 9.56561146 15.34388537 9 21 C9.66 21 10.32 21 11 21 C11.6708712 22.6232687 12.33657029 24.24867578 13 25.875 C13.37125 26.77992188 13.7425 27.68484375 14.125 28.6171875 C15 31 15 31 15 33 C12.04335481 34.4783226 9.25770263 34.06032783 6 34 C6 33.67 6 33.34 6 33 C7.65 33 9.3 33 11 33 C10.814375 32.401875 10.62875 31.80375 10.4375 31.1875 C10 29 10 29 11 26 C10.53722656 25.60683594 10.07445313 25.21367187 9.59765625 24.80859375 C7.66724485 22.62331141 7.17629195 20.8699094 6.4375 18.0625 C5.32137209 13.8817497 4.11892953 10.43222979 1.4375 7 C-0.04016734 4.94411501 -0.65591406 3.49462307 -1 1 C-0.67 0.67 -0.34 0.34 0 0 Z " fill="#1C1974" transform="translate(102,123)"/>
<path d="M0 0 C0.33 0 0.66 0 1 0 C1 1.65 1 3.3 1 5 C1.99 5.33 2.98 5.66 4 6 C4.07414355 9.85546463 4.09847762 13.29263803 3 17 C3 17.66 3 18.32 3 19 C10.59 19.33 18.18 19.66 26 20 C26 20.33 26 20.66 26 21 C22.3958502 21.02900455 18.79173038 21.04680018 15.1875 21.0625 C13.65125977 21.07506836 13.65125977 21.07506836 12.08398438 21.08789062 C10.60961914 21.09272461 10.60961914 21.09272461 9.10546875 21.09765625 C8.19949951 21.10289307 7.29353027 21.10812988 6.36010742 21.11352539 C4 21 4 21 1 20 C-0.1482685 17.703463 -0.11561175 16.41686833 -0.09765625 13.8671875 C-0.09443359 13.06152344 -0.09121094 12.25585938 -0.08789062 11.42578125 C-0.07951172 10.58402344 -0.07113281 9.74226562 -0.0625 8.875 C-0.05798828 8.02550781 -0.05347656 7.17601562 -0.04882812 6.30078125 C-0.03702874 4.20049091 -0.01909306 2.1002367 0 0 Z " fill="#5C2AD4" transform="translate(314,122)"/>
<path d="M0 0 C7.92 0 15.84 0 24 0 C24 1.65 24 3.3 24 5 C23.44014404 5.02505615 22.88028809 5.0501123 22.3034668 5.07592773 C19.76458695 5.19203745 17.22606447 5.3146958 14.6875 5.4375 C13.36588867 5.49647461 13.36588867 5.49647461 12.01757812 5.55664062 C10.74624023 5.61948242 10.74624023 5.61948242 9.44921875 5.68359375 C8.66893311 5.72025146 7.88864746 5.75690918 7.0847168 5.79467773 C4.80670899 5.94125263 4.80670899 5.94125263 2 7 C1.34 6.01 0.68 5.02 0 4 C6.27 4 12.54 4 19 4 C19 3.01 19 2.02 19 1 C12.73 1 6.46 1 0 1 C0 0.67 0 0.34 0 0 Z " fill="#2C289C" transform="translate(14,139)"/>
<path d="M0 0 C1.65 0 3.3 0 5 0 C5.02698189 1.62490954 5.04638757 3.24994633 5.0625 4.875 C5.07410156 5.77992188 5.08570313 6.68484375 5.09765625 7.6171875 C5 10 5 10 4 12 C3.01 12 2.02 12 1 12 C1 11.34 1 10.68 1 10 C0.01 9.67 -0.98 9.34 -2 9 C-1.34 9 -0.68 9 0 9 C0 6.03 0 3.06 0 0 Z " fill="#1602A3" transform="translate(186,148)"/>
<path d="M0 0 C4.29 0 8.58 0 13 0 C12.34 1.65 11.68 3.3 11 5 C7.7 5 4.4 5 1 5 C0.67 3.35 0.34 1.7 0 0 Z " fill="#294EB3" transform="translate(232,139)"/>
<path d="M0 0 C0.99 0 1.98 0 3 0 C1.42334814 6.04383212 -0.19175707 11.00988858 -4 16 C-4.66 15.67 -5.32 15.34 -6 15 C-5.34 11.7 -4.68 8.4 -4 5 C-2.68 4.67 -1.36 4.34 0 4 C-0.33 3.01 -0.66 2.02 -1 1 C-0.67 0.67 -0.34 0.34 0 0 Z " fill="#CA6CE3" transform="translate(471,127)"/>
<path d="M0 0 C0.99 1.485 0.99 1.485 2 3 C4.42521494 3.58189266 4.42521494 3.58189266 7.125 3.6875 C8.49011719 3.78611328 8.49011719 3.78611328 9.8828125 3.88671875 C10.58148438 3.92410156 11.28015625 3.96148437 12 4 C11.29875 5.093125 10.5975 6.18625 9.875 7.3125 C6.67951944 12.41245034 3.83772867 17.69510516 1 23 C0.28515625 21.453125 0.28515625 21.453125 0 19 C1.05391226 16.46142115 2.13965574 14.15504473 3.4375 11.75 C3.77587891 11.1003125 4.11425781 10.450625 4.46289062 9.78125 C5.29786887 8.18185506 6.14753114 6.59014141 7 5 C5.02 5 3.04 5 1 5 C0.67 3.35 0.34 1.7 0 0 Z " fill="#35538F" transform="translate(231,140)"/>
<path d="M0 0 C6.6 0 13.2 0 20 0 C20 0.99 20 1.98 20 3 C17.04112541 3.08069658 14.0844341 3.14034665 11.125 3.1875 C10.28324219 3.21263672 9.44148438 3.23777344 8.57421875 3.26367188 C7.76855469 3.27333984 6.96289062 3.28300781 6.1328125 3.29296875 C5.38918457 3.3086792 4.64555664 3.32438965 3.87939453 3.34057617 C2.94909424 3.17199097 2.94909424 3.17199097 2 3 C1.34 2.01 0.68 1.02 0 0 Z " fill="#1303A2" transform="translate(16,120)"/>
<path d="M0 0 C-0.99 3.63 -1.98 7.26 -3 11 C-4.65 11 -6.3 11 -8 11 C-8.33 9.68 -8.66 8.36 -9 7 C-8.34 6.67 -7.68 6.34 -7 6 C-6.5359375 4.7625 -6.5359375 4.7625 -6.0625 3.5 C-5.711875 2.675 -5.36125 1.85 -5 1 C-2 0 -2 0 0 0 Z " fill="#CA6AE3" transform="translate(467,144)"/>
<path d="M0 0 C2.97 0 5.94 0 9 0 C8.88617347 1.95901454 8.75858875 3.9172338 8.625 5.875 C8.55539063 6.96554688 8.48578125 8.05609375 8.4140625 9.1796875 C8 12 8 12 6 14 C3.875 13.625 3.875 13.625 2 13 C3.32 12.34 4.64 11.68 6 11 C6 7.7 6 4.4 6 1 C4.35 1 2.7 1 1 1 C1 3.97 1 6.94 1 10 C0.34 9.67 -0.32 9.34 -1 9 C-0.67 6.03 -0.34 3.06 0 0 Z " fill="#342C8D" transform="translate(185,147)"/>
<path d="M0 0 C4.05679377 -0.02477373 8.11355806 -0.04289493 12.17041016 -0.05493164 C13.54964973 -0.05995118 14.92888402 -0.06676819 16.30810547 -0.07543945 C18.29392183 -0.0876092 20.27977749 -0.09271633 22.265625 -0.09765625 C23.45961914 -0.10289307 24.65361328 -0.10812988 25.88378906 -0.11352539 C28.46694617 -0.01941946 30.55008419 0.23373845 33 1 C32.67 2.32 32.34 3.64 32 5 C30.68 4.67 29.36 4.34 28 4 C28 3.01 28 2.02 28 1 C18.76 1 9.52 1 0 1 C0 0.67 0 0.34 0 0 Z " fill="#2F2696" transform="translate(8,119)"/>
<path d="M0 0 C0.99 0 1.98 0 3 0 C2.71640113 1.4391134 2.42278601 2.87625518 2.125 4.3125 C1.96257812 5.11300781 1.80015625 5.91351563 1.6328125 6.73828125 C1 9 1 9 -1 12 C-1.99 12 -2.98 12 -4 12 C-3.33501617 7.61110675 -1.81242323 4.0188515 0 0 Z " fill="#1602A8" transform="translate(85,131)"/>
<path d="M0 0 C6.6 0 13.2 0 20 0 C20 0.99 20 1.98 20 3 C18.68 3.33 17.36 3.66 16 4 C16 3.34 16 2.68 16 2 C10.72 2 5.44 2 0 2 C0 1.34 0 0.68 0 0 Z " fill="#4A13DA" transform="translate(322,120)"/>
<path d="M0 0 C0.99 0.33 1.98 0.66 3 1 C2.85930804 3.12534659 2.71229079 5.25027529 2.5625 7.375 C2.48128906 8.55835938 2.40007812 9.74171875 2.31640625 10.9609375 C2 14 2 14 1 16 C2.32 15.67 3.64 15.34 5 15 C5 15.99 5 16.98 5 18 C3.35 18 1.7 18 0 18 C-0.38218767 16.34385343 -0.71395102 14.67542976 -1 13 C-0.67 12.67 -0.34 12.34 0 12 C0.04092937 9.66702567 0.04241723 7.33294775 0 5 C-0.66 4.67 -1.32 4.34 -2 4 C-2 3.34 -2 2.68 -2 2 C-1.34 2 -0.68 2 0 2 C0 1.34 0 0.68 0 0 Z " fill="#5A16EA" transform="translate(317,123)"/>
<path d="M0 0 C2.64 0 5.28 0 8 0 C8 2.31 8 4.62 8 7 C6 6 6 6 5 3 C4.34 3 3.68 3 3 3 C2.67 5.64 2.34 8.28 2 11 C1.34 10.67 0.68 10.34 0 10 C0 6.7 0 3.4 0 0 Z " fill="#542BCD" transform="translate(314,149)"/>
<path d="M0 0 C0.66 0.33 1.32 0.66 2 1 C2 4.96 2 8.92 2 13 C0.02 13.99 0.02 13.99 -2 15 C-1.85816304 13.24967156 -1.71136571 11.49974466 -1.5625 9.75 C-1.48128906 8.77546875 -1.40007813 7.8009375 -1.31640625 6.796875 C-1.04925416 4.43538247 -0.64628032 2.28098935 0 0 Z " fill="#1601AA" transform="translate(11,124)"/>
<path d="M0 0 C0.33 0 0.66 0 1 0 C0.29270211 6.01203207 -1.23399583 10.66556339 -4 16 C-4.66 15.67 -5.32 15.34 -6 15 C-5.6216851 8.94696161 -3.70282835 4.81617877 0 0 Z " fill="#1D1486" transform="translate(93,124)"/>
<path d="M0 0 C2.29633824 3.44450737 2.54016485 5.93812283 3 10 C-0.91941982 6.69298952 -0.91941982 6.69298952 -1.3125 3.3125 C-1 1 -1 1 0 0 Z M-5 5 C-4.67 5.66 -4.34 6.32 -4 7 C-3.01 7 -2.02 7 -1 7 C-1 9.64 -1 12.28 -1 15 C-3.2551922 12.7448078 -3.97723468 10.9952413 -5 8 C-5 7.01 -5 6.02 -5 5 Z " fill="#2416A3" transform="translate(107,135)"/>
<path d="M0 0 C-0.55728913 3.34373475 -1.35173889 6.03312999 -3 9 C-4.65 9 -6.3 9 -8 9 C-7.38245741 7.68397477 -6.75571258 6.37226444 -6.125 5.0625 C-5.77695313 4.33160156 -5.42890625 3.60070312 -5.0703125 2.84765625 C-3.67632841 0.44125306 -2.76768491 0 0 0 Z " fill="#1403A7" transform="translate(82,147)"/>
<path d="M0 0 C1.98 0.99 3.96 1.98 6 3 C5.01 3.495 5.01 3.495 4 4 C4.680625 4.70125 5.36125 5.4025 6.0625 6.125 C8 9 8 9 7.75 12.3125 C7.5025 13.199375 7.255 14.08625 7 15 C4.16510975 12.16510975 3.838975 9.03866043 2.87890625 5.21484375 C2.44384766 4.11849609 2.44384766 4.11849609 2 3 C1.01 2.67 0.02 2.34 -1 2 C-0.67 1.34 -0.34 0.68 0 0 Z " fill="#2211A0" transform="translate(94,122)"/>
<path d="M0 0 C4.62 0 9.24 0 14 0 C14 0.66 14 1.32 14 2 C10.42355152 3.2380014 7.66305234 2.74926071 4 2 C4 2.66 4 3.32 4 4 C2.68 4 1.36 4 0 4 C0 2.68 0 1.36 0 0 Z " fill="#7046ED" transform="translate(386,120)"/>
<path d="M0 0 C2.64 0 5.28 0 8 0 C8 1.32 8 2.64 8 4 C4.625 4.125 4.625 4.125 1 4 C0.34 3.34 -0.32 2.68 -1 2 C-0.67 1.34 -0.34 0.68 0 0 Z " fill="#B46BDE" transform="translate(267,140)"/>
<path d="M0 0 C0.33 0 0.66 0 1 0 C0.91253716 1.43861294 0.80434652 2.87597508 0.6875 4.3125 C0.62949219 5.11300781 0.57148437 5.91351563 0.51171875 6.73828125 C-0.09707201 9.42904349 -0.77487619 10.39296613 -3 12 C-6.6875 12.1875 -6.6875 12.1875 -10 12 C-9.67 11.34 -9.34 10.68 -9 10 C-7.35 10 -5.7 10 -4 10 C-2.68 6.7 -1.36 3.4 0 0 Z " fill="#2F249D" transform="translate(83,145)"/>
<path d="M0 0 C0.66 0 1.32 0 2 0 C2.33 4.29 2.66 8.58 3 13 C1.68 13.33 0.36 13.66 -1 14 C-0.67 9.38 -0.34 4.76 0 0 Z " fill="#5626C3" transform="translate(319,125)"/>
<path d="M0 0 C2.64 0 5.28 0 8 0 C8 0.66 8 1.32 8 2 C10.97 2 13.94 2 17 2 C17 2.33 17 2.66 17 3 C15.25008666 3.02715383 13.50005055 3.04646551 11.75 3.0625 C10.28820312 3.07990234 10.28820312 3.07990234 8.796875 3.09765625 C6.33080103 3.01155032 4.36470808 2.6222916 2 2 C-0.18703385 2.37907282 -0.18703385 2.37907282 -2 3 C-1.34 2.67 -0.68 2.34 0 2 C0 1.34 0 0.68 0 0 Z " fill="#7D4CF5" transform="translate(400,120)"/>
<path d="M0 0 C3.63 0 7.26 0 11 0 C11.66 2.31 12.32 4.62 13 7 C12.34 7 11.68 7 11 7 C9 4 9 4 9 1 C4.545 1.495 4.545 1.495 0 2 C0 1.34 0 0.68 0 0 Z " fill="#201095" transform="translate(89,115)"/>
<path d="M0 0 C2.64 0 5.28 0 8 0 C5.53846154 3.81538462 5.53846154 3.81538462 2.8125 4.75 C2.214375 4.8325 1.61625 4.915 1 5 C0.67 3.35 0.34 1.7 0 0 Z " fill="#174BA6" transform="translate(232,139)"/>
<path d="M0 0 C0.99 0.33 1.98 0.66 3 1 C3.33 2.65 3.66 4.3 4 6 C1.04335481 7.4783226 -1.74229737 7.06032783 -5 7 C-5 6.67 -5 6.34 -5 6 C-3.35 6 -1.7 6 0 6 C-0.185625 5.38125 -0.37125 4.7625 -0.5625 4.125 C-1 2 -1 2 0 0 Z " fill="#332D93" transform="translate(113,150)"/>
<path d="M0 0 C2 3 2 3 2 5 C1.566875 5.4125 1.13375 5.825 0.6875 6.25 C-1.53321447 8.55296316 -2.65526461 11.11842417 -4 14 C-5.305239 10.08428299 -4.32239848 8.96107003 -2.5625 5.3125 C-2.08941406 4.31863281 -1.61632812 3.32476562 -1.12890625 2.30078125 C-0.75636719 1.54152344 -0.38382812 0.78226562 0 0 Z " fill="#BC80CE" transform="translate(473,115)"/>
<path d="M0 0 C1.32 0 2.64 0 4 0 C4.33 0.99 4.66 1.98 5 3 C5.99 3.66 6.98 4.32 8 5 C5.36 5 2.72 5 0 5 C0 3.35 0 1.7 0 0 Z " fill="#7A5FC9" transform="translate(256,140)"/>
<path d="M0 0 C0.66 0 1.32 0 2 0 C0.74194623 4.50802601 -0.90407165 7.4912812 -4 11 C-3.49357808 6.64477147 -2.61588503 3.55760365 0 0 Z " fill="#2D4664" transform="translate(235,152)"/>
<path d="M0 0 C2.97 0.33 5.94 0.66 9 1 C8.67 2.32 8.34 3.64 8 5 C6.68 4.67 5.36 4.34 4 4 C4 3.01 4 2.02 4 1 C2.68 0.67 1.36 0.34 0 0 Z " fill="#36378C" transform="translate(32,119)"/>
<path d="M0 0 C0.66 0 1.32 0 2 0 C1.54965877 1.62723299 1.08944646 3.25173664 0.625 4.875 C0.36976563 5.77992188 0.11453125 6.68484375 -0.1484375 7.6171875 C-1 10 -1 10 -3 12 C-2.69230293 10.18667846 -2.37870936 8.37435655 -2.0625 6.5625 C-1.80146484 5.04849609 -1.80146484 5.04849609 -1.53515625 3.50390625 C-1 1 -1 1 0 0 Z " fill="#B877CD" transform="translate(475,123)"/>
<path d="M0 0 C2.31 0 4.62 0 7 0 C6.67 0.66 6.34 1.32 6 2 C5.34 2 4.68 2 4 2 C3.67 2.99 3.34 3.98 3 5 C3 4.34 3 3.68 3 3 C1.68 3.33 0.36 3.66 -1 4 C-0.67 2.68 -0.34 1.36 0 0 Z " fill="#CE90E4" transform="translate(475,114)"/>
<path d="M0 0 C0.33 0 0.66 0 1 0 C1.22162329 1.62324086 1.42689803 3.248721 1.625 4.875 C1.74101562 5.77992188 1.85703125 6.68484375 1.9765625 7.6171875 C1.98429688 8.40351563 1.99203125 9.18984375 2 10 C1.34 10.66 0.68 11.32 0 12 C-2.125 11.625 -2.125 11.625 -4 11 C-2.68 10.34 -1.36 9.68 0 9 C0 6.03 0 3.06 0 0 Z " fill="#2B1D9A" transform="translate(191,149)"/>
<path d="M0 0 C0.66 0.33 1.32 0.66 2 1 C1.67 2.98 1.34 4.96 1 7 C0.01 6.67 -0.98 6.34 -2 6 C-1.34 4.02 -0.68 2.04 0 0 Z " fill="#5C18EE" transform="translate(317,151)"/>
<path d="M0 0 C2 3 2 3 3 5 C3.99 5.66 4.98 6.32 6 7 C4.02 7 2.04 7 0 7 C-0.38133299 5.0085944 -0.71325582 3.00720923 -1 1 C-0.67 0.67 -0.34 0.34 0 0 Z " fill="#1D0D9D" transform="translate(107,149)"/>
<path d="M0 0 C0 0.33 0 0.66 0 1 C-1.65 1 -3.3 1 -5 1 C-4.67 2.32 -4.34 3.64 -4 5 C-5.65 4.67 -7.3 4.34 -9 4 C-8.67 3.01 -8.34 2.02 -8 1 C-5.29120665 -0.35439668 -2.99066732 -0.06501451 0 0 Z " fill="#A164D6" transform="translate(272,139)"/>
<path d="M0 0 C1.13643966 3.40931897 0.86747764 4.00335456 -0.4375 7.1875 C-0.72496094 7.90292969 -1.01242187 8.61835938 -1.30859375 9.35546875 C-1.53675781 9.89816406 -1.76492188 10.44085938 -2 11 C-3.25 9.4375 -3.25 9.4375 -4 7 C-2.93237266 4.42998985 -1.53455057 2.3469597 0 0 Z " fill="#B872CD" transform="translate(471,135)"/>
<path d="M0 0 C2.50298434 2.93828597 3.46930939 5.17902761 4 9 C1.24338912 6.51015791 -0.60746455 4.79450934 -1 1 C-0.67 0.67 -0.34 0.34 0 0 Z " fill="#271D90" transform="translate(102,123)"/>
<path d="M0 0 C5.75 0.75 5.75 0.75 8 3 C5.36 3 2.72 3 0 3 C0 2.01 0 1.02 0 0 Z " fill="#7C54F4" transform="translate(390,121)"/>
<path d="M0 0 C0.99 0 1.98 0 3 0 C3 1.98 3 3.96 3 6 C1.68 5.67 0.36 5.34 -1 5 C-0.67 3.35 -0.34 1.7 0 0 Z " fill="#D162E9" transform="translate(475,117)"/>
</svg>
